<?xml version="1.0" encoding="utf-8"?>
<!-- Generator: Adobe Illustrator 22.0.1, SVG Export Plug-In . SVG Version: 6.00 Build 0)  -->
<svg version="1.1" id="Layer_1" xmlns="http://www.w3.org/2000/svg" xmlns:xlink="http://www.w3.org/1999/xlink" x="0px" y="0px"
	 viewBox="0 0 130.2 130.2" style="enable-background:new 0 0 130.2 130.2;" xml:space="preserve">
<style type="text/css">
	.st0{fill:#FFFFFF;}
</style>
<g>
	<path class="st0" d="M118.7,10H75.4c-0.9-1.2-1.3-2.7-1.3-4.3c0-1.8-0.5-3-1.6-3.7c-1-0.7-2.3-0.6-3.9,0.2c-2,1-3.6,2.5-4.7,4.6
		C63,8.5,61.8,9.5,60.3,10H11.5c-0.8,0-1.5,0.7-1.5,1.5v107.2c0,0.8,0.7,1.5,1.5,1.5h107.2c0.9,0,1.5-0.6,1.5-1.5V11.5
		C120.2,10.7,119.5,10,118.7,10z M117.2,117.2H13V13h36.3c-1.3,1-2.4,2.2-3.5,3.7c-3.4,4.8-5,10.1-6.1,14.6
		c-0.8,3.3-1.3,6.4-1.6,9.5c-0.4,4.2-0.6,7.8-0.6,11.2v4.5c-0.1,2.7-0.1,5.3-0.1,7.9c0,0.8,0,1.7,0.1,2.5c0.2,2.2,2.3,3.9,4.9,4.1
		h39c1,0,2.1,0.1,3.1,0.1s1.9,0.1,2.8,0.1h0.1c1.6,0,2.8-0.5,3.8-1.3c0.9-0.9,1.3-2.2,1.3-3.8v-1.7c0-1.3,0-2.6-0.2-4
		c-0.4-2.4-1.7-4.3-3.8-5.8c-2.7-1.9-5.5-3.9-8.1-6.1c-0.5-0.4-1.3-0.4-1.8,0c-0.1,0.1-0.2,0.2-0.3,0.3c-0.5,0.6-0.4,1.6,0.2,2.1
		c2.7,2.2,5.5,4.3,8.3,6.2c1.4,1,2.2,2.3,2.5,3.7c0.1,1.1,0.1,2.3,0.1,3.5V66c0,0.5,0,1.2-0.4,1.6c-0.4,0.4-1.2,0.5-1.7,0.5
		c-0.9,0-1.8-0.1-2.7-0.1c-1.1,0-2.2-0.1-3.3-0.1H42.6c-1.1-0.1-2-0.7-2.1-1.4s-0.1-1.4-0.1-2.1c0.1-2.6,0.1-5.2,0.1-7.8v-4.5
		c0-3.3,0.2-6.7,0.6-10.9c0.2-2.9,0.7-5.9,1.5-9.1c1-4.2,2.4-9.2,5.6-13.5c2.7-3.7,5.7-5.3,9.6-5.2c1.1,0,2.2-0.1,3.2-0.4
		c1.1-0.3,2-0.8,2.9-1.5c0.5-0.4,1-0.9,1.5-1.5c0.4-0.5,0.8-1.1,1.1-1.7c0.8-1.5,1.9-2.7,3.4-3.4c0.7-0.4,1-0.4,1-0.4
		c0,0.1,0.2,0.3,0.2,1.2c0.1,1.5,0.4,3,1,4.3c0.2,0.5,0.5,1,0.8,1.5c0.4,0.5,0.8,1,1.2,1.5c0.3,0.3,0.5,0.5,0.8,0.7
		c4.3,3.5,8.8,6.9,13.1,10.3c1.6,1.3,3.2,2.5,4.8,3.8c0.7,0.5,1.4,1.1,2.1,1.6c1.3,1,2.5,1.9,3.7,2.9c1.4,1.2,1.3,1.9,0.6,2.9
		c-1.5,2.1-3.1,4.1-4.9,5.7c-0.6,0.6-1.3,0.8-2.2,0.8c-1.3,0-2.5-0.5-4-1.5c-3.1-2.1-6.3-2.8-9.7-1.9c-0.8,0.2-1.8,0.2-3-0.1
		c-1.7-0.4-3.3-1.3-5.1-2.8c-0.3-0.3-1.3-1.1-2.7-0.9c-0.9,0.1-1.4,0.9-1.3,1.7c0.1,0.9,0.9,1.4,1.7,1.3c0.1,0,0.1,0,0.4,0.2
		c0.9,0.7,1.7,1.4,2.5,1.9c1.2,0.7,2.5,1.2,3.8,1.5c1.6,0.4,3.1,0.4,4.4,0.1c2.6-0.7,4.9-0.2,7.3,1.4c1.9,1.3,3.8,1.9,5.6,2
		c1.6,0.1,3.1-0.5,4.3-1.6c1.9-1.7,3.7-3.8,5.3-6.1c1.8-2.4,1.4-4.9-1.1-6.9c-1.2-1-2.4-1.9-3.7-2.9c-0.7-0.5-1.4-1.1-2.1-1.6
		c-1.7-1.3-3.3-2.5-4.9-3.8c-3.6-2.9-7.4-5.8-11.1-8.7h38.5V117.2z"/>
	<path class="st0" d="M100.3,102.9c-0.4-2-1.4-3.3-3.2-4c-2.4-1-3.6-3.3-3-5.9c0.2-0.8,0.6-1.4,1.2-2.2c0.1-0.2,0.2-0.2,0.2-0.2
		c3-2,2.5-5.2,2.3-6.3c-0.1-0.7-0.2-1.4-0.3-2.1l-0.1-0.6c-0.2-1.1-0.7-2-1.4-2.6c-0.7-0.6-1.7-1-2.8-1H35.8c-3.1,0-4.8,1.5-4.9,4.4
		c0,0.4-0.1,0.8-0.2,1.2c-0.1,0.4-0.2,0.7-0.2,1.1c-0.3,2.4,0.5,4.4,2.2,5.9c1.1,0.9,1.6,2,1.8,3.5c-0.2,2.2-1.4,3.8-3.7,4.8
		c-1.7,0.8-2.8,2.3-2.9,4.3c-0.1,1.4-0.3,2.8-0.5,4.1c-0.2,1.3,0.1,2.6,0.9,3.5c0.8,0.9,2,1.4,3.3,1.4h65.8c1.2,0,2.3-0.4,2.6-1.1
		c0.6-0.6,1.2-1.7,1-3.6C100.8,106.1,100.6,104.6,100.3,102.9z M30.4,107.8c0.3-1.3,0.5-2.8,0.6-4.4c0.1-1.2,0.6-1.6,1.1-1.8
		c3.3-1.5,5.2-4,5.5-7.4v-0.4c-0.2-2.3-1.2-4.2-2.8-5.6c-0.9-0.9-1.3-1.9-1.1-3.3c0.1-0.3,0.1-0.6,0.2-0.9c0.2-0.5,0.3-1.1,0.3-1.7
		c0-1,0.1-1.5,1.9-1.5h57.4c1.1,0,1.3,0.7,1.3,1l0.1,0.6c0.1,0.8,0.2,1.5,0.3,2.2c0.3,2-0.1,2.7-1,3.3c-0.3,0.2-0.6,0.5-0.9,0.9
		c-0.7,0.9-1.4,2-1.7,3.3c-1,4.1,1,7.9,4.9,9.4c0.8,0.4,1.1,0.8,1.3,1.8c0.2,1.6,0.5,3,0.6,4.4c0.1,0.6,0,1.1-0.2,1.3
		s-0.5,0.2-0.8,0.2H31.6c-0.3,0-0.8,0-1-0.3C30.4,108.7,30.3,108.3,30.4,107.8z"/>
	<path class="st0" d="M50.8,96.5h26.7c0.9,0,1.5-0.7,1.5-1.5s-0.7-1.5-1.5-1.5H50.8c-0.8,0-1.5,0.7-1.5,1.5S50,96.5,50.8,96.5z"/>
</g>
</svg>
