<svg xmlns="http://www.w3.org/2000/svg" viewBox="0 0 154.93 54.96"><defs><style>.cls-1{fill:#fff;}</style></defs><title>Apis Logo</title><g id="Layer_2" data-name="Layer 2"><g id="Layer_1-2" data-name="Layer 1"><polygon class="cls-1" points="33.66 47.59 33.66 50.04 30.88 50.04 30.88 48.2 21.67 37.54 27.4 33.99 33.66 47.59"/><polygon class="cls-1" points="48.57 44.52 45.92 50.04 43.62 50.04 45.64 39.1 48.57 44.52"/><path class="cls-1" d="M6.77,31.51A6.92,6.92,0,0,1,0,24.82l.64-.7A6,6,0,0,0,6.43,30.3a6,6,0,0,0,5.79-6.18,6.63,6.63,0,0,0-.1-1.13c0-.08-.17-.62-.17-.62L51.29,6.09l19.14,15v9.53a13.68,13.68,0,0,0,4.5,1.82,29.89,29.89,0,0,0,6.22-.61s-3.92,3-6.6,3.17a18,18,0,0,1-4.12-.21v1.13l-8,6.14h-2L58.33,31.33h-4V50H52.63L44.78,35.52l-14.45-4.4L14,40.74,18.18,50H15.4L5.83,35.11h8V27.28s-.34-3.51-.34-3c0,3.7-3.31,7.2-6.77,7.2"/><polygon class="cls-1" points="31.96 3.3 41.33 3.44 49.91 9.28 51.06 8.36 42.12 0 33.31 0 11.39 7.41 17.76 8.31 31.96 3.3"/><polygon class="cls-1" points="40.33 4.2 27.85 8.82 21.71 8.01 32.47 4.02 40.33 4.2"/><polygon class="cls-1" points="45.21 6.92 36.28 9.28 29.91 8.81 41.35 4.57 45.21 6.92"/><path class="cls-1" d="M95,19.9h3.72l9,26.76h-2.93l-2.77-8.3H91.7l-2.25,6.75-2.55,2.42H85.12L86.91,44ZM92.44,36h9L97,22.17H96.9Z"/><path class="cls-1" d="M120.36,26q4.79,0,6.4,3a10.6,10.6,0,0,1,1.07,3.16,26.11,26.11,0,0,1,.29,4.3,15.1,15.1,0,0,1-.7,4.75,9.21,9.21,0,0,1-1.65,3.2,7.8,7.8,0,0,1-2.19,1.73,7.23,7.23,0,0,1-3.41.95,14.92,14.92,0,0,1-5.06-1.45V55h-2.56V31.59l-.7-5h1.69l.12.12.74,2.11A8,8,0,0,1,120.36,26m-5.25,17.88a13.08,13.08,0,0,0,4.36.78,7.52,7.52,0,0,0,3.18-.52A3.72,3.72,0,0,0,125,41a12.2,12.2,0,0,0,.29-2q0-.74,0-2.54t-.06-2.89a17.16,17.16,0,0,0-.29-2.27,3.22,3.22,0,0,0-.72-1.67,5,5,0,0,0-3.68-1.24,6.86,6.86,0,0,0-5.45,2.27Z"/><path class="cls-1" d="M133.45,19.53h2.89v3h-2.89Zm.17,6.81h2.56V46.66h-2.56Z"/><path class="cls-1" d="M141.83,43.85a13.32,13.32,0,0,0,4.79,1,7.45,7.45,0,0,0,3.82-.93A2.78,2.78,0,0,0,152,41.46,3.09,3.09,0,0,0,151,39a8.58,8.58,0,0,0-2.6-1.51q-1.53-.58-3-1.22a7.31,7.31,0,0,1-2.58-1.82,4.16,4.16,0,0,1-1.07-2.91,5,5,0,0,1,1.9-4.19,7.58,7.58,0,0,1,4.77-1.47,16.19,16.19,0,0,1,5.51.95l-.54,1.9a14.46,14.46,0,0,0-4.67-.7q-4.3,0-4.3,3.35,0,2.15,3.72,3.55,1.57.58,3.12,1.26a7.31,7.31,0,0,1,2.64,2,4.61,4.61,0,0,1,1.09,3.1,4.73,4.73,0,0,1-2.4,4.25A10.28,10.28,0,0,1,147,47a14.72,14.72,0,0,1-5.78-1.12Z"/></g></g></svg>