<?xml version="1.0" encoding="utf-8"?>
<!-- Generator: Adobe Illustrator 22.0.1, SVG Export Plug-In . SVG Version: 6.00 Build 0)  -->
<svg version="1.1" id="Layer_1" xmlns="http://www.w3.org/2000/svg" xmlns:xlink="http://www.w3.org/1999/xlink" x="0px" y="0px"
	 viewBox="0 0 130.2 130.2" style="enable-background:new 0 0 130.2 130.2;" xml:space="preserve">
<style type="text/css">
	.st0{fill:#FFFFFF;}
</style>
<g>
	<path class="st0" d="M125.9,25.9h-2.8c-0.6-2.5-1.6-4.9-2.9-7.1l2-2c1.6-1.6,1.6-4.2,0-5.8l-3.1-3.1c-1.6-1.6-4.2-1.6-5.8,0l-2,2
		c-2.2-1.3-4.6-2.3-7.1-2.9V4.2c0-2.3-1.8-4.1-4.1-4.1h-4.4c-2.3,0-4.1,1.8-4.1,4.1v2.9c-2.5,0.6-4.9,1.6-7.1,2.9l-2-2
		c-0.8-0.8-1.8-1.2-2.9-1.2c-1.1,0-2.1,0.4-2.9,1.2l-1.9,2H11.5c-0.8,0-1.5,0.7-1.5,1.5v107.2c0,0.8,0.7,1.5,1.5,1.5h107.2
		c0.9,0,1.5-0.6,1.5-1.5V55.4l2-2c1.6-1.6,1.6-4.2,0-5.8l-2-2c1.3-2.2,2.3-4.6,2.9-7.1h2.8c2.3,0,4.1-1.8,4.1-4.1V30
		C130,27.7,128.2,25.9,125.9,25.9z M117.2,117.2H13V13h59.6c-0.1,0.3-0.1,0.7-0.1,1c0,1.1,0.4,2.1,1.2,2.9l2,2c-1.1,1.9-2,4-2.7,6.1
		c-0.5,0.2-0.9,0.5-1.3,1H70c-2.3,0-4.1,1.8-4.1,4.1v4.4c0,2.3,1.8,4.1,4.1,4.1h2.8c0.6,2.5,1.6,4.9,2.9,7.1l-2,2
		c-0.8,0.8-1.2,1.8-1.2,2.9c0,1.1,0.4,2.1,1.2,2.9l3.1,3.1c0.8,0.8,1.8,1.2,2.9,1.2c1.1,0,2.1-0.4,2.9-1.2l2-2
		c2.2,1.3,4.6,2.3,7.1,2.9v2.8c0,2.3,1.8,4.1,4.1,4.1h4.4c2.2,0,4.1-1.8,4-4.2v-2.6c0.1-0.1,0.1-0.2,0.2-0.3
		c2.4-0.6,4.8-1.6,6.9-2.9l2,2c1.1,1.1,2.5,1.4,3.9,1.1V117.2z M127.2,34.5h-0.1c0,0.6-0.5,1.1-1.1,1.1h-4c-0.7,0-1.4,0.5-1.5,1.2
		c-0.1,0.4-0.2,0.9-0.3,1.3c-0.4,1.4-0.9,2.8-1.5,4.2c-0.4,0.9-0.9,1.8-1.5,2.6c0,0-0.1,0.1-0.1,0.2c-0.4,0.5-0.3,1.3,0.1,1.8l3,3
		c0.4,0.5,0.4,1.2,0,1.6l-3.1,3.1c-0.5,0.4-1.2,0.4-1.6,0l-2.9-2.9c-0.5-0.5-1.3-0.6-1.9-0.2c-1.8,1.2-3.7,2.1-5.7,2.7
		c-0.8,0.3-1.7,0.5-2.6,0.7c-0.7,0.2-1.2,0.8-1.2,1.5v4c0,0.6-0.5,1.1-1.1,1.1h-4.4c-0.6,0-1.1-0.5-1.1-1.1v-4
		c0-0.7-0.5-1.4-1.2-1.5c-3-0.6-5.8-1.7-8.3-3.4c-0.2-0.2-0.5-0.3-0.8-0.3s-0.7,0.1-1,0.5l-2.9,2.9c-0.4,0.4-1.2,0.4-1.6,0l-3.1-3.1
		c-0.2-0.2-0.3-0.5-0.3-0.8s0.1-0.6,0.3-0.8l2.9-2.9c0.5-0.5,0.6-1.3,0.2-1.9c-1.7-2.6-2.8-5.4-3.4-8.3c-0.2-0.7-0.8-1.2-1.5-1.2h-4
		c-0.6,0-1.1-0.5-1.1-1.1v-1.9l1.5-3.6h3.6c0.7,0,1.4-0.5,1.5-1.2c0.2-0.9,0.4-1.9,0.7-2.8c0.6-2,1.5-3.8,2.7-5.5
		c0.4-0.6,0.3-1.4-0.2-1.9l-2.9-2.9c-0.2-0.2-0.3-0.5-0.3-0.8s0.1-0.6,0.3-0.8l0.1-0.1l3-3c0.5-0.4,1.2-0.4,1.6,0l1.4,1.5l1.5,1.5
		c0.5,0.4,1.2,0.5,1.8,0.1c0.1,0,0.1-0.1,0.2-0.1c0.9-0.6,1.8-1.1,2.7-1.5c1.4-0.6,2.7-1.1,4.2-1.5c0.4-0.1,0.8-0.2,1.3-0.3
		c0.7-0.2,1.2-0.8,1.2-1.5v-4c0-0.6,0.5-1.1,1.1-1.1h4.4c0.6,0,1.1,0.5,1.1,1.1v4c0,0.7,0.5,1.4,1.2,1.5c0.4,0.1,0.9,0.2,1.3,0.3
		c1.5,0.4,2.8,0.9,4.2,1.5c0.9,0.4,1.8,0.9,2.6,1.5c0.1,0,0.1,0.1,0.2,0.1c0.5,0.4,1.3,0.3,1.8-0.1l0.1-0.1l1.4-1.4l1.5-1.5
		c0.5-0.4,1.2-0.4,1.6,0l1.5,1.5l0.1,0.1l1.5,1.5c0.4,0.5,0.4,1.2,0,1.6l-1.5,1.5l-1.4,1.4l-0.1,0.1c-0.4,0.5-0.5,1.2-0.1,1.8
		c0,0,0.1,0.1,0.1,0.2c0.6,0.9,1.1,1.8,1.5,2.7c0.6,1.4,1.1,2.7,1.5,4.2c0.1,0.4,0.2,0.8,0.3,1.3c0.2,0.7,0.8,1.2,1.5,1.2h4
		c0.6,0,1.1,0.5,1.1,1.1V34.5z"/>
	<path class="st0" d="M102.3,75.6l-4.8-2L97,73.4c-0.8-0.3-1.7,0-2,0.8s0,1.7,0.8,2l5.3,2.2c0.6,0.2,1,0.7,1.2,1.2
		c0.2,0.6,0.2,1.2,0,1.7L99.9,87c-0.5,1.1-1.8,1.7-2.9,1.2L91.7,86c-0.6-0.2-1.4,0-1.8,0.6c-2.5,3.7-5.6,6.8-9.2,9.2
		c-0.6,0.4-0.9,1.1-0.6,1.8l2.2,5.3c0.2,0.6,0.2,1.2,0,1.7c-0.2,0.6-0.7,1-1.2,1.2l-5.8,2.4c-0.6,0.2-1.2,0.2-1.7,0
		c-0.6-0.2-1-0.7-1.2-1.2l-2.2-5.3c-0.3-0.7-1-1-1.7-0.9c-4.4,0.9-8.7,0.9-13,0c-0.7-0.1-1.4,0.2-1.7,0.9l-2.2,5.3
		c-0.2,0.6-0.7,1-1.2,1.2c-0.6,0.2-1.2,0.2-1.7,0l-5.8-2.4c-0.6-0.2-1-0.7-1.2-1.2c-0.2-0.6-0.2-1.2,0-1.7l2.2-5.3
		c0.2-0.6,0-1.4-0.6-1.8c-3.7-2.5-6.8-5.6-9.2-9.2C33.7,86,33,85.7,32.3,86L27,88.2c-1.1,0.5-2.4-0.1-2.9-1.2l-2.4-5.8
		c-0.2-0.6-0.2-1.1,0-1.7s0.7-1,1.2-1.2l5.3-2.2c0.7-0.3,1-1,0.9-1.7c-0.9-4.4-0.9-8.7,0-13c0.1-0.7-0.2-1.4-0.9-1.7l-5.3-2.2
		c-1.1-0.4-1.7-1.7-1.2-2.8l2.4-5.8c0.5-1.1,1.8-1.7,2.9-1.2l5.2,2.2c0.6,0.3,1.4,0.1,1.8-0.5c2.5-3.7,5.6-6.8,9.2-9.2
		c0.6-0.4,0.9-1.1,0.6-1.8l-2.2-5.3c-0.2-0.6-0.2-1.1,0-1.7c0.2-0.6,0.7-1,1.2-1.2l5.8-2.4c1.1-0.5,2.4,0.1,2.9,1.2l2.2,5.2
		c0.4,0.7,1.2,1.1,2,0.8c0.7-0.4,1.1-1.2,0.8-2l-0.3-0.7l-1.9-4.6c-0.5-1.3-1.5-2.3-2.8-2.8s-2.7-0.5-4,0l-5.8,2.4
		c-1.3,0.5-2.3,1.5-2.8,2.8s-0.5,2.7,0,4l1.7,4.2c-3.2,2.3-6,5.1-8.3,8.3l-4.2-1.7c-2.6-1.1-5.7,0.2-6.8,2.8l-2.4,5.8
		c-1.1,2.7,0.2,5.7,2.8,6.8l4.2,1.7c-0.6,3.9-0.6,7.8,0,11.7l-4.2,1.7c-1.3,0.5-2.3,1.5-2.8,2.8s-0.5,2.7,0,4l2.4,5.8
		c1.1,2.6,4.1,3.9,6.8,2.8l4.2-1.7c2.3,3.2,5.1,6,8.3,8.3l-1.7,4.2c-0.5,1.3-0.5,2.7,0,4s1.5,2.3,2.8,2.8l5.8,2.4
		c1.3,0.5,2.7,0.5,4,0s2.3-1.5,2.8-2.8l1.7-4.2c3.9,0.6,7.8,0.6,11.7,0l1.7,4.2c0.5,1.3,1.5,2.3,2.8,2.8c0.6,0.3,1.3,0.4,2,0.4
		c0.6,0,1.3-0.1,2.3-0.3l5.8-2.4c1.3-0.5,2.3-1.5,2.8-2.8s0.5-2.7,0-4l-1.7-4.2c3.2-2.3,6-5.1,8.3-8.3l4.2,1.7
		c2.6,1.1,5.7-0.2,6.8-2.8l2.4-5.7c0.5-1.3,0.5-2.7,0-4S103.6,76.1,102.3,75.6z"/>
	<path class="st0" d="M45.9,61.3c-1.8,4.2-1.8,8.9,0,13.2c1.7,4.3,5,7.6,9.3,9.4c2.1,0.9,4.4,1.3,6.6,1.3c6.8,0,13.2-4,16.1-10.6
		c0.9-2.3,1.3-4.6,1.3-7c0-0.7-0.5-1.3-1.1-1.4c-0.1,0-0.3-0.1-0.4-0.1c-0.9,0-1.5,0.7-1.5,1.5c0,2-0.3,4-1.1,5.8
		c-3,7.3-11.4,10.7-18.7,7.7c-3.5-1.5-6.2-4.3-7.7-7.8s-1.5-7.4,0-10.9c2.1-5.1,7-8.5,12.5-8.8c0.8-0.1,1.4-0.8,1.4-1.6
		c0-0.2-0.1-0.3-0.1-0.4c-0.2-0.6-0.8-1-1.5-1C54.3,51,48.4,55.1,45.9,61.3z"/>
</g>
</svg>
