<?xml version="1.0" encoding="utf-8"?>
<!-- Generator: Adobe Illustrator 22.0.1, SVG Export Plug-In . SVG Version: 6.00 Build 0)  -->
<svg version="1.1" id="Layer_1" xmlns="http://www.w3.org/2000/svg" xmlns:xlink="http://www.w3.org/1999/xlink" x="0px" y="0px"
	 viewBox="0 0 130.2 130.2" style="enable-background:new 0 0 130.2 130.2;" xml:space="preserve">
<style type="text/css">
	.st0{fill:#FFFFFF;}
</style>
<g>
	<path class="st0" d="M44.4,80.9c0-0.8-0.7-1.5-1.5-1.5H19.2c-0.8,0-1.5,0.7-1.5,1.5s0.7,1.5,1.5,1.5h23.7
		C43.8,82.4,44.4,81.7,44.4,80.9z"/>
	<path class="st0" d="M79.9,103.7h-27c-0.8,0-1.5,0.7-1.5,1.5s0.7,1.5,1.5,1.5h27c0.8,0,1.5-0.7,1.5-1.5S80.7,103.7,79.9,103.7z"/>
	<path class="st0" d="M32.4,92c0,0.8,0.7,1.5,1.5,1.5h75.4c0.8,0,1.6-0.7,1.6-1.5s-0.7-1.5-1.5-1.5H33.9
		C33.1,90.5,32.4,91.2,32.4,92z"/>
	<path class="st0" d="M127.8,16.9l-16.4-15c-2.7-2.5-6.8-2.3-9.3,0.4L95,10H11.5c-0.8,0-1.5,0.7-1.5,1.5v107.2
		c0,0.8,0.7,1.5,1.5,1.5h107.2c0.9,0,1.5-0.6,1.5-1.5V34.9L121,34c0.1-0.1,0.2-0.1,0.3-0.2c0.1-0.1,0.2-0.2,0.2-0.3l0,0l6.7-7.3
		C130.7,23.5,130.5,19.4,127.8,16.9z M117.2,117.2H13V13h79.3L54.6,54.1c-0.7,0.8-1.1,1.8-1.2,2.9l-0.6,11.9c0,0.2,0,0.3,0.1,0.5
		l-0.6,11.7c-0.1,0.4,0.1,0.8,0.4,1.1c0.3,0.2,0.7,0.4,1.1,0.4H54l12.1-1.4c0.3,0,0.5-0.1,0.8-0.3l11-1.4c1.1-0.2,2.1-0.7,2.9-1.5
		l36.5-39.8V117.2z M117.2,33.8L85.8,68.2l-6.3-5.8l32.3-35.3l5.4,4.9V33.8z M76.4,63.6l7.4,6.8l-5.3,5.8c-0.2,0.3-0.6,0.5-1,0.5
		L66.3,78l-10.4-9.6l0.5-11.2c0-0.3,0.1-0.7,0.4-1l5.3-5.7L76.4,63.6z M55.7,72.3l6.8,6.2l-7.1,0.9L55.7,72.3z M77.3,60.4l-5.5-5.1
		l32.3-35.3l5.5,5.1L77.3,60.4z M69.6,53.3L64,48.3L96.3,13h0.1l5.5,5L69.6,53.3z M126,24.2l-5.8,6.3l-0.1,0.1l-1.4-1.3l-1.5-1.4
		l-16.4-15l-1.6-1.5l-0.8-0.7L99,10l5.2-5.6c1.4-1.4,3.6-1.5,5.1-0.2l6.3,5.8l1.6,1.5l1.4,1.3l1.5,1.4l5.5,5
		c0.8,0.7,1.2,1.7,1.2,2.7C126.9,22.7,126.6,23.5,126,24.2z"/>
</g>
</svg>
