<?xml version="1.0" encoding="utf-8"?>
<!-- Generator: Adobe Illustrator 22.0.1, SVG Export Plug-In . SVG Version: 6.00 Build 0)  -->
<svg version="1.1" id="Layer_1" xmlns="http://www.w3.org/2000/svg" xmlns:xlink="http://www.w3.org/1999/xlink" x="0px" y="0px"
	 viewBox="0 0 320.2 280" style="enable-background:new 0 0 320.2 280;" xml:space="preserve">
<style type="text/css">
	.st0{fill:#272D37;}
</style>
<title>lifeline</title>
<g id="Layer_2_1_">
	<g>
		<g id="Layer_1-2_8_">
			<path class="st0" d="M293.5,280c-12.6-0.8-22.5-6.4-27.8-18.4c-5.3-12-3.4-23.2,5.3-32.9s19.6-11.9,31.9-8.7
				c2.9,0.7,5.6,2.2,7.7,4.4c5.1,5.1,5.3,11.3,0,16.2c-8.1,7.7-16.3,15.3-24.7,22.6c-3.4,2.9-2.3,4,1.1,5c7.8,2.4,14.8,1,20.8-4.7
				c0.9-1,1.8-2,2.6-3c2.1-2.5,4.7-3.3,7.5-1.2c2.9,2.3,2.7,5.1,0.7,7.9C312.4,275.5,304,279.5,293.5,280z M273.6,249.1
				c-0.1,0.8-0.1,1.7,0,2.5c0.5,2,0.2,4.9,2.3,5.7c1.6,0.6,3-1.7,4.3-2.9c6.9-6.2,13.8-12.5,20.6-18.9c3.5-3.2,3.1-4.1-1.5-5.6
				C287,225.8,273.6,235.8,273.6,249.1L273.6,249.1z"/>
			<path class="st0" d="M96.5,249.3c0.2-21.2,20.6-35.7,40.2-29.3c9.4,3,16.3,13.6,5.3,22.8c-7.9,6.6-15.2,14-23,20.8
				c-2.9,2.5-2,3.4,0.9,4.5c7.9,3.1,16.9,0.8,22.9-6.3c1.4-1.7,2.7-3.5,5.1-3.5c2.1-0.1,4,1,4.9,2.9c1.3,2.4,0.3,4.4-1.1,6.5
				c-11.9,16.8-38.2,16.3-50-1C98.1,261.5,96.3,255.4,96.5,249.3z M127.9,229c-13.8-0.1-23.9,12.8-20.4,25.4c0.9,3.2,2,3.8,4.6,1.4
				c6.8-6.3,13.7-12.5,20.5-18.9c1.5-1.4,4.4-2.6,3.7-4.8c-0.8-2.5-4-2.4-6.4-3.1C129.2,229,128.6,229,127.9,229z"/>
			<path class="st0" d="M257.8,258c0,5.3,0,10.6,0,16c0,3.5-1.2,6-5.1,6s-5.1-2.4-5.1-5.9c0-9.3,0.1-18.6,0-28
				c-0.2-10.3-7.3-18.7-16.7-20.2c-10.1-1.6-19.2,3.7-22.6,13c-1.1,3.2-1.5,6.5-1.4,9.8c0,8.3,0,16.6,0,25c0,3.5-1.5,6-5.1,6
				s-5.1-2.4-5.1-6c0.1-10.1-0.2-20.3,0.1-30.5c0.4-14.8,14-27.7,29.2-28.1c16.4-0.4,30.3,11.1,31.6,26.4c0.5,5.4,0.1,11,0.1,16.5
				L257.8,258z"/>
			<path class="st0" d="M74.4,244.4c0.6-8.7-1.1-19.4,1.1-29.9c2.8-14.2,16.1-23.9,30.5-22.2c3.1,0.3,5.5,1.7,5.5,5.2
				c0,4-2.6,5.3-6.3,5.4c-11.1,0.4-16.2,3.8-18.9,11.5c-1.2,3.4-0.9,5.1,3.2,4.7c2-0.1,4-0.1,6,0c3.2,0.2,4.9,2,4.9,5.1
				c0,2.9-1.6,4.6-4.6,4.8c-0.5,0-1,0-1.5,0.1c-9.6,0.4-9.6,0.4-9.6,9.9c0,11.2-0.1,22.3,0,33.5c0,3.8-0.9,7-5.2,6.9s-5.1-3.3-5.1-7
				C74.5,263.7,74.4,255,74.4,244.4z"/>
			<path class="st0" d="M10.5,225.4c0.6,8.4-1,18.5,0.9,28.6c1.7,8.7,6.1,12.9,14.9,14.3c5.8,1,11.6,0.5,17.5,0.6
				c3.6,0,6.5,1,6.5,5.1s-2.8,5.3-6.5,5.1c-7.1-0.3-14.3,0.7-21.4-0.9c-12.9-3-20.7-11.5-21.6-24.6c-1.4-18.5-0.4-37-0.5-55.5
				c0-3.4,1.3-6,5.2-5.9c4.1,0.1,5.2,2.8,5.2,6.4C10.4,206.9,10.5,215.3,10.5,225.4z"/>
			<path class="st0" d="M158.7,235.5c0-12,0-24,0-35.9c0-3.8,0.6-7.4,5.3-7.4s5.5,3.4,5.4,7.3c0,24.1,0,48.2,0,72.4
				c0,3.9-0.9,7.2-5.6,7.1c-4.5-0.1-5.1-3.4-5.1-7C158.7,259.8,158.7,247.7,158.7,235.5z"/>
			<path class="st0" d="M178.7,247.7c0-8.3,0-16.6,0-24.9c0-3.6,0.9-6.4,5-6.6c4.4-0.2,5.7,2.8,5.7,6.5c0,16.6,0,33.2,0,49.9
				c0,3.8-1.2,6.7-5.6,6.6c-4.1-0.1-5.1-2.9-5.1-6.5C178.7,264.3,178.7,256,178.7,247.7z"/>
			<path class="st0" d="M66.4,247.7c0,8.3,0,16.6,0,24.9c0,3.6-1,6.4-5,6.5c-4.4,0.1-5.5-2.9-5.5-6.6c0-16.6,0-33.2,0-49.8
				c0-3.8,1.2-6.8,5.6-6.6c4,0.2,5,3.1,5,6.6C66.4,231.1,66.4,239.4,66.4,247.7z"/>
			<path class="st0" d="M66.4,201.9c0.1,1.3,0.1,2.6,0,3.9c-0.3,2.4-2.4,4.2-4.9,4.2c-2.7,0.1-4.6-1.1-5.2-3.6
				c-0.8-3.2-0.8-6.6,0.1-9.8c0.6-2.4,2.9-3.9,5.3-3.5c2.4,0.1,4.4,1.9,4.7,4.3C66.5,198.9,66.5,200.4,66.4,201.9L66.4,201.9z"/>
			<path class="st0" d="M189.4,202c0.1,2.5,0.1,5.3-2.4,7c-2.1,1.7-5.2,1.4-6.9-0.8c0-0.1-0.1-0.1-0.1-0.2
				c-1.9-2.2-1.8-11.1,0.1-13.2c2.1-2.3,4.6-2.6,7.1-0.7C189.7,196.1,189.4,199.1,189.4,202z"/>
			<path class="st0" d="M133.9,79.3c6.2,1.1,10.5,4,10.7,10.9c0.3,5.7-4.1,10.6-9.8,10.9c-0.5,0-1,0-1.5,0
				c-6.7-0.4-10.4-4.3-10.3-10.9C123.2,83.3,127.6,80.2,133.9,79.3z"/>
			<path class="st0" d="M116.3,41.4c-6.1-1.2-10.3-4.2-10.4-11.1c0-6.6,4.7-11.1,11.4-10.6c6.8,0.5,10.3,4.6,10.1,11.1
				C127.2,37.5,122.7,40.6,116.3,41.4z"/>
			<path class="st0" d="M221.4,30.6c-0.5,6.9-4.4,10.6-10.9,10.6s-10.4-4.3-10.8-10.7c-0.4-6,5.1-11.1,11.5-10.7
				C218,20.1,221.1,24.1,221.4,30.6z"/>
			<path class="st0" d="M151.1,36.7c6.3,0.8,10.3,4.4,10.3,11s-4.2,10.3-10.7,10.7c-6.3,0.4-11.2-4.9-10.8-11.3
				C140.3,40.3,144.4,37.2,151.1,36.7z"/>
			<path class="st0" d="M222.9,112.9c-5.4-1-8.9-4.8-8.3-11.5s5-10.2,11.4-9.8s10.1,4.7,10.1,11.3
				C236.1,109.1,230.6,113.6,222.9,112.9z"/>
			<path class="st0" d="M116.2,113.2c6.6,0.7,10.6,4,11.3,10.6c0.6,6.1-4.9,11.5-11.1,11.2c-6.7-0.3-10.4-4-10.5-10.7
				S110.1,114.2,116.2,113.2z"/>
			<path class="st0" d="M204.2,65.4c-0.3,5.5-4.1,9.1-10.5,9.7c-6.1,0.5-11.6-5-11.1-11.2c0.5-6.6,4.2-10.2,11-10.3
				C199.8,53.6,204.1,57.9,204.2,65.4z"/>
			<path class="st0" d="M103.1,41.6c5.8,0.5,9.5,3.9,9.5,10.7s-4.3,10.2-10.5,10.8c-5.8,0.5-11.7-5.6-11-11.4
				C91.8,45.3,95.5,41.6,103.1,41.6z"/>
			<path class="st0" d="M150.5,118.1c-5.8-0.5-9.3-4.3-9.3-10.9c0-6.8,4.2-10.3,10.6-10.6c6-0.3,11.7,5.6,10.9,11.5
				C161.9,114.4,158.3,118.2,150.5,118.1z"/>
			<path class="st0" d="M199.4,17.3c-0.5,5.5-4,9.2-10.8,9.1s-10.3-4.2-10.7-10.6c-0.4-6,5.5-11.7,11.4-11
				C195.7,5.7,199.5,9.3,199.4,17.3z"/>
			<path class="st0" d="M224.6,62.2c-6.3-0.4-10.1-3.7-10.2-10.5s4-10.3,10.3-11c6-0.6,11.7,5.1,11.2,11.1
				C235.4,58.2,231.8,62,224.6,62.2z"/>
			<path class="st0" d="M97.6,66.4c6,0.7,10.1,3.9,10.1,10.8S104,87.6,97.3,87.8c-6.5,0.2-11.8-4.8-11.2-11
				C86.7,70.4,90.6,66.8,97.6,66.4z"/>
			<path class="st0" d="M162.3,87.8c-5.6-0.4-9.3-4-9.3-10.7s4.1-10.3,10.6-10.6c6.1-0.3,11.7,5.3,11,11.3
				C173.8,84.1,170.2,88,162.3,87.8z"/>
			<path class="st0" d="M194.1,78.1c5.8,0.7,10.3,3.5,10.4,10.4c0.1,6.6-3.1,10.7-9.9,11.1c-5.9,0.5-11.1-3.9-11.7-9.8
				c0-0.3,0-0.5,0-0.8C182.9,83.4,187.9,78.3,194.1,78.1z"/>
			<path class="st0" d="M187.4,106.6c-0.2,6.8-3.7,10.7-10.3,11.2c-6,0.5-12-5.2-11.4-11c0.6-6.3,4.2-10.5,11-10.5
				S186.9,100,187.4,106.6z"/>
			<path class="st0" d="M211,135.1c-6.9-0.4-10.6-4.2-11.3-10.5c-0.7-5.8,5.1-11.6,11.2-11.2c6.6,0.4,10.4,4,10.4,10.9
				S217.4,134.4,211,135.1z"/>
			<path class="st0" d="M189.1,149.1c-5.9-0.4-10-3.3-10.3-10.2s3.6-10.5,9.9-11.3c6-0.8,11.9,4.7,11.6,10.7
				C200,144.8,196.5,148.7,189.1,149.1z"/>
			<path class="st0" d="M127.8,137.4c0.2-5.3,3.5-9,10.3-9.3c6.4-0.3,12,4.9,11.4,10.9c-0.6,6.4-4.7,10.2-11.1,10.6
				C132.7,150.1,127.9,144.9,127.8,137.4z"/>
			<path class="st0" d="M162.4,21.5c-5.9-0.4-9.4-4.2-9.4-10.8c0-6.8,4.2-10.3,10.6-10.7c6-0.4,11.6,5.6,10.9,11.4
				C173.7,17.8,170.1,21.6,162.4,21.5z"/>
			<path class="st0" d="M102.9,92.3c6,0.4,9.8,3.8,9.9,10.6s-3.9,10.3-10.3,10.8c-6,0.5-11.4-5.1-11.3-11.1
				C91.4,96.8,96.3,92.3,102.9,92.3z"/>
			<path class="st0" d="M229.9,87.9c-6-0.3-10-3.3-10.3-10.2s3.6-10.5,10-11.2c6.1-0.7,11.9,4.7,11.5,10.7
				C240.7,83.6,237.3,87.6,229.9,87.9z"/>
			<path class="st0" d="M148.5,17.3c-0.4,5.7-4,9.3-10.7,9.3s-10.3-4-10.8-10.5c-0.4-6,5.4-11.4,11.3-11.1S148.6,10.2,148.5,17.3z"
				/>
			<path class="st0" d="M133.4,54.8c6.7,0.3,10.4,4,11,10.4c0.5,6-5,11.3-11.3,10.9c-6.6-0.4-10.3-3.9-10.3-10.8
				C122.8,59.1,127.1,54.8,133.4,54.8z"/>
			<path class="st0" d="M177.1,36.5c5.5,0.3,9,4.2,9,10.7c0,6.8-4.1,10.3-10.5,10.7s-10.9-4.8-10.7-11.3
				C165.1,40.3,169.4,36.3,177.1,36.5z"/>
			<path class="st0" d="M153,142.9c0.6-6.8,4.7-10.1,11.2-9.9c6.7,0.2,10.1,4.5,10.4,10.9c0.2,6.1-5.3,10.7-11.7,10.3
				C156.7,153.8,152.7,149.2,153,142.9z"/>
		</g>
	</g>
</g>
</svg>
